# xmcd CD database file
# Copyright (C) 1995-1998 Ti Kan
#
# Track frame offsets:
#	187
#	20742
#	39402
#	58257
#	76712
#	94232
#	115620
#	128825
#	149595
#
# Disc length: 2267 seconds
#
# Revision: 3
# Processed by: cddbd v1.4PL0 Copyright (c) Steve Scherf et al.
# Submitted via: CDex 1.30Release
#
DISCID=7608d909
DTITLE=Alabama - Gonna Have a Party... Live
DYEAR=1900
DGENRE=Country
TTITLE0=Gonna Have A Party
TTITLE1=Red River
TTITLE2=Roll On (Eighteen Wheeler)
TTITLE3=She And I
TTITLE4=Lady Down On Love
TTITLE5=Tennessee River
TTITLE6=Green River
TTITLE7=My Home's In Alabama
TTITLE8=Takin' Care Of Business
EXTD=ID3G:   2
EXTT0=
EXTT1=
EXTT2=
EXTT3=
EXTT4=
EXTT5=
EXTT6=
EXTT7=
EXTT8=
PLAYORDER=
